<?xml version="1.0" encoding="utf-8"?>
<!-- Generator: Adobe Illustrator 19.2.1, SVG Export Plug-In . SVG Version: 6.00 Build 0)  -->
<svg version="1.1" id="layer" xmlns="http://www.w3.org/2000/svg" xmlns:xlink="http://www.w3.org/1999/xlink" x="0px" y="0px"
	 viewBox="0 0 652 652" style="enable-background:new 0 0 652 652;" xml:space="preserve">
<style type="text/css">
	.st0{fill:none;stroke:#F1C300;stroke-width:8.2081;}
	.st1{fill:#004988;}
	.st2{fill:#FFFFFF;}
	.st3{fill:#F1C300;}
</style>
<g>
	<path class="st0" d="M102.3,239.5c-45,0-81.5,36.5-81.5,81.6c0,45,36.5,81.5,81.5,81.5c45,0,81.5-36.5,81.5-81.5
		C183.9,276,147.4,239.5,102.3,239.5z"/>
</g>
<g>
	<path class="st1" d="M102.3,239.5c-45,0-81.5,36.5-81.5,81.6c0,45,36.5,81.5,81.5,81.5c45,0,81.5-36.5,81.5-81.5
		C183.9,276,147.4,239.5,102.3,239.5"/>
	<path class="st2" d="M104.1,318.6c-0.5,4.1-0.3,10.2-0.6,13.1c-0.1,1.4-1.1,2.3-1.2,0.1c-0.2-3.1-0.5-12.2,0.2-19.5
		c0.5-5.8,2.6-9.5,4.9-12.6c4.6-6.1,10.7-8.9,16.4-14c3.4-3.1,5-7.2,5-12.2c0-1.8,1-2.3,1.1,0.3c0.3,6.1-1.8,9.7-4.1,12.2
		c-8.3,9.1-13.9,10.6-18.4,19.4C104.5,310.9,104.7,313.5,104.1,318.6"/>
	<path class="st2" d="M85.4,296.6c-6.9-5.4-11.8-14.7-9.6-24c0.2-0.9,0.7-1,0.8-0.4c-0.4,7.5,0.6,11.4,6,17.4
		c5.5,6.1,5.4,5.7,7.7,8.8c2.7,3.7,3.3,6.1,3,10.1c0.2,1.5-1,1.7-1.1-0.1C92.2,303.6,90.4,300.5,85.4,296.6"/>
	<path class="st2" d="M102.8,272.7c-6-0.1-10.5,4.1-10.5,9.4c0,5.3,4.3,9.7,10.4,9.7c6,0.1,10.9-4.2,11-9.4
		C113.7,277.1,108.9,272.8,102.8,272.7 M102.2,290.5c-4.7,0-8.5-3.8-8.5-8.3c0-4.5,3.9-8.2,8.6-8.2c4.7,0,8.5,3.8,8.5,8.3
		C110.8,286.8,106.9,290.5,102.2,290.5"/>
	<path class="st3" d="M120.9,316.1c-5.5,5.2-10.2,12-12.4,18.4c-2.6,7.7-3.4,14.2-4,22.4c-0.4,6.3-0.2,17.6,0.1,24.1
		c0,0.3,0.5,1.9,0.7-0.3c0.2-6.5,0.3-19.2,0.7-24.3c0.7-7.4,1.6-13.1,4.3-21c1.4-4,3.5-7.5,5.9-11.1c2.4-3.8,4.7-5.9,8.5-9.5
		c3.1-2.9,6.2-4.8,9.3-7.1c0.5-0.4,0.1-0.8-0.7-0.3c-2.3,1.5-4,2.2-6.5,3.9C125.3,312.5,122.4,314.7,120.9,316.1"/>
	<path class="st3" d="M147.1,305.3c-6.3,6.7-12.1,11.2-19.9,16.4c-0.2,0.3,0.1,0.6,0.4,0.5c3.1-1.5,4.9-2.8,7.4-4.4
		c10-6.9,16-12.3,23.3-26.4c0.4-0.9,0.1-1.1-0.4-0.2c-0.4,0.6-0.3,0.5-0.8,1.2C153.6,297.5,151.3,300.9,147.1,305.3"/>
	<path class="st3" d="M155.1,309c-3.8,4.5-7.9,8.2-12.1,12.1c-0.3,0.3,0.1,0.5,0.5,0.2c0.3-0.1,0.7-0.3,1.1-0.6
		c6-4.1,9.1-7.7,12.7-12.1c3.3-4.5,5.5-8.6,7.7-13.6c0.4-0.9-0.1-0.9-0.6-0.1C161.4,300.4,158.9,304.6,155.1,309"/>
	<path class="st3" d="M146.6,347.1c-3.9,2.8-7.2,5.3-10.7,8.4c-1.7,1.7-3.3,3.5-4,5.1c-0.9,2.2-1.3,4.2-1.2,8.7
		c-0.1,1.7,0.8,1.9,0.8,0c0-0.7,0.1-2,0.3-3.3c0.4-4,2-6.7,5.2-9.2c13.2-10.1,26.3-18.1,34-31.4c0.3-0.5,0.3-1-0.1-0.8
		c-0.2,0.1-0.8,0.9-1,1.2c-3,4.2-8.7,9.8-13.6,14.1C152.9,342.7,150.1,344.6,146.6,347.1"/>
	<path class="st3" d="M160.6,314.5c-3.9,4.5-7.8,8.2-12,12.2c-0.2,0.3,0,0.6,0.5,0.3c0.4-0.2,0.6-0.4,2.2-1.5
		c6.2-4.7,7.9-6.7,11.6-11.1c3.2-4.5,5-7.8,7.1-12.8c0.3-0.7-0.1-0.7-0.5-0.1C165.6,308.3,164.3,310.1,160.6,314.5"/>
	<path class="st3" d="M165.1,321.6c-3.8,4.5-6.7,6.9-11.8,11.5c-0.1,0.1,0,0.5,0.4,0.3c0.5-0.3,1.4-0.9,2.8-2
		c5.6-4.2,7.9-6.4,11-10.7c2.6-3.5,4.1-6.9,5.8-10.5c0.5-1.1,0-1.1-0.5-0.3C170.1,315,168.9,317.2,165.1,321.6"/>
	<path class="st3" d="M84,316.1c5.5,5.2,10.2,12.1,12.4,18.5c2.7,7.7,3.4,14.2,4,22.4c0.4,6.3,0.2,17.6-0.1,24.1
		c0,0.2-0.5,1.9-0.7-0.3c-0.2-6.6-0.3-19.3-0.7-24.3c-0.7-7.4-1.6-13.1-4.3-21c-1.4-4-3.5-7.5-5.8-11.1c-2.4-3.8-4.7-5.9-8.5-9.5
		c-3.1-2.9-6.2-4.8-9.3-7.1c-0.5-0.4-0.1-0.8,0.7-0.3c2.3,1.5,4,2.2,6.5,3.9C79.7,312.5,82.6,314.7,84,316.1"/>
	<path class="st3" d="M57.8,305.3c6.3,6.7,12.1,11.2,19.9,16.4c0.3,0.3-0.1,0.6-0.3,0.5c-3.1-1.5-4.9-2.8-7.4-4.4
		c-10-6.9-16-12.3-23.3-26.4c-0.4-0.8-0.1-1.1,0.5-0.2c0.4,0.6,0.3,0.5,0.8,1.2C51.3,297.5,53.6,300.9,57.8,305.3"/>
	<path class="st3" d="M49.8,309c3.8,4.5,7.9,8.2,12.1,12.1c0.3,0.3,0,0.5-0.5,0.2c-0.3-0.2-0.7-0.3-1.1-0.6
		c-6-4.1-9.1-7.7-12.8-12.2c-3.2-4.5-5.5-8.6-7.6-13.6c-0.4-0.9,0.1-0.9,0.6-0.1C43.5,300.4,46,304.6,49.8,309"/>
	<path class="st3" d="M58.3,347.1c3.9,2.8,7.2,5.3,10.7,8.4c1.7,1.7,3.3,3.5,3.9,5.1c0.9,2.2,1.3,4.2,1.2,8.7c0.1,1.7-0.8,1.9-0.8,0
		c0-0.7-0.1-2-0.3-3.4c-0.4-4-2-6.7-5.2-9.2c-13.2-10.1-26.3-18.1-34-31.4c-0.3-0.5-0.3-1,0.1-0.8c0.2,0.1,0.8,0.9,1,1.2
		c3,4.1,8.7,9.8,13.6,14.1C52.1,342.7,54.8,344.6,58.3,347.1"/>
	<path class="st3" d="M44.4,314.5c3.8,4.5,7.8,8.2,12,12.1c0.2,0.3,0,0.6-0.5,0.3c-0.4-0.2-0.6-0.4-2.2-1.5
		c-6.2-4.7-7.9-6.7-11.6-11.1c-3.2-4.5-5-7.8-7.1-12.8c-0.3-0.7,0.1-0.7,0.5-0.1C39.3,308.3,40.6,310.1,44.4,314.5"/>
	<path class="st3" d="M39.8,321.6c3.8,4.5,6.7,6.9,11.8,11.5c0.1,0.1,0,0.5-0.4,0.3c-0.5-0.3-1.4-0.9-2.8-1.9
		c-5.6-4.2-7.9-6.4-11-10.7c-2.6-3.5-4.1-6.9-5.8-10.5c-0.5-1.1,0-1.1,0.5-0.3C34.8,315.1,36,317.2,39.8,321.6"/>
	<path class="st1" d="M232.5,300.1l2.3-3.3h1.9l0.2,14h-1.7c-1.1-4.3-2.7-7.4-4.8-9.4c-2.1-2-4.5-3-7.3-3c-2.3,0-4.1,0.7-5.6,2.1
		c-1.5,1.4-2.2,3-2.2,5c0,1.2,0.3,2.3,0.8,3.2c0.6,0.9,1.4,1.7,2.5,2.3c1.1,0.6,3.2,1.2,6.2,1.8c4.3,0.9,7.3,1.9,9,2.8
		c1.7,0.9,3,2.1,3.8,3.6c0.8,1.4,1.3,3.1,1.3,5.1c0,3.5-1.2,6.3-3.5,8.6c-2.3,2.3-5.3,3.4-9,3.4c-4,0-7.4-1.3-10.3-3.8l-2.9,3.6
		h-1.9v-14.9h1.9c0.7,4.1,2.3,7.3,4.9,9.7c2.5,2.4,5.4,3.6,8.5,3.6c2.6,0,4.6-0.8,6.3-2.3c1.6-1.5,2.4-3.3,2.4-5.5
		c0-1.2-0.3-2.3-0.9-3.2c-0.6-0.9-1.6-1.7-2.9-2.3c-1.3-0.6-3.9-1.4-7.8-2.3c-4.2-1-7.1-2.1-8.7-3.4c-2.2-1.8-3.2-4.3-3.2-7.5
		c0-3.4,1.1-6.1,3.2-8.3c2.2-2.2,4.9-3.2,8.3-3.2c1.6,0,3.1,0.3,4.6,0.9C229.4,297.8,230.9,298.8,232.5,300.1"/>
	<path class="st1" d="M243.6,297.2l9.2-0.4v18.7c1.3-1.7,2.7-2.9,4.1-3.7c1.5-0.8,3-1.2,4.7-1.2c1.6,0,3,0.4,4.2,1.1
		c1,0.6,1.8,1.6,2.5,3.1c0.7,1.5,1,3.2,1,5.2v11.6c0,0.7,0.2,1.3,0.6,1.6c0.4,0.3,1,0.5,1.8,0.5h2.1v1.9h-13.1v-1.9h1.5
		c1.1,0,1.9-0.2,2.3-0.5c0.4-0.3,0.6-0.9,0.6-1.6V320c0-2-0.5-3.6-1.5-4.7c-1-1.1-2.2-1.7-3.8-1.7c-1.2,0-2.3,0.3-3.3,1
		c-1,0.6-1.9,1.6-2.6,2.9c-0.7,1.3-1.1,2.7-1.1,4.1v9.7c0,0.9,0.2,1.5,0.5,1.8c0.4,0.4,1,0.5,1.8,0.5h2.1v1.9h-12.8v-1.9h1.5
		c1,0,1.7-0.2,2.1-0.6c0.4-0.4,0.6-1,0.6-1.8v-29c0-1-0.3-1.8-0.8-2.3c-0.5-0.5-1.3-0.8-2.4-0.8h-1.8V297.2z"/>
	<path class="st1" d="M298.4,323.6H281c0.1,3.7,0.8,6.3,2.1,7.8c1.5,1.7,3.4,2.6,5.7,2.6c3.4,0,6.1-1.9,8.2-5.8l1.7,0.7
		c-2.5,4.9-6.2,7.4-10.9,7.4c-3.3,0-6-1.2-8.2-3.5c-2.2-2.3-3.3-5.4-3.3-9c0-3.9,1.1-7.1,3.3-9.6c2.2-2.4,4.9-3.6,8.1-3.6
		c2.3,0,4.4,0.6,6.1,1.8c1.7,1.2,3,2.9,3.9,5.2C298,319.2,298.3,321.2,298.4,323.6 M281,321.8h10.5c0.6,0,1.1-0.2,1.5-0.6
		c0.3-0.4,0.5-1.1,0.5-2.2c0-1.9-0.6-3.5-1.8-4.9c-1.2-1.3-2.6-2-4.2-2c-1.8,0-3.3,0.8-4.6,2.4C281.7,316.1,281,318.5,281,321.8"/>
	<path class="st1" d="M309.8,310.8c0.4,1.8,0.6,3.6,0.7,5.2c1.2-1.9,2.4-3.3,3.8-4c1.3-0.8,2.7-1.2,4.3-1.2c1.7,0,3.2,0.5,4.8,1.5
		c1.5,1,2.7,2.5,3.7,4.5c0.9,2,1.4,4.2,1.4,6.7c0,4-1.2,7.2-3.5,9.7c-1.9,2.1-4.2,3.1-6.9,3.1c-1.5,0-2.9-0.4-4.1-1.2
		c-1.2-0.8-2.3-1.9-3.3-3.5v9.8c0,0.8,0.2,1.3,0.5,1.6c0.5,0.4,1.1,0.6,1.9,0.6h1.8v1.8h-13v-1.8h1.8c0.8,0,1.5-0.2,1.9-0.5
		c0.4-0.3,0.6-0.8,0.6-1.3v-25.6c0-1.2-0.3-2-0.9-2.5c-0.6-0.5-1.7-0.8-3.4-0.8v-1.7L309.8,310.8z M317.4,313.2
		c-1.9,0-3.5,0.9-4.8,2.7c-1.3,1.8-2,4.4-2,7.9c0,3.5,0.6,6,1.9,7.7c1.3,1.7,2.9,2.5,4.8,2.5c1.8,0,3.2-0.7,4.2-2.1
		c1.3-1.9,1.9-4.6,1.9-8.2c0-3.8-0.6-6.5-1.7-8.1C320.6,314,319.2,313.2,317.4,313.2"/>
	<path class="st1" d="M331,297.2l9.2-0.4v18.7c1.3-1.7,2.7-2.9,4.1-3.7c1.5-0.8,3-1.2,4.7-1.2c1.6,0,3,0.4,4.2,1.1
		c1,0.6,1.8,1.6,2.5,3.1c0.7,1.5,1,3.2,1,5.2v11.6c0,0.7,0.2,1.3,0.6,1.6c0.4,0.3,1,0.5,1.8,0.5h2.1v1.9H348v-1.9h1.5
		c1.1,0,1.9-0.2,2.3-0.5c0.4-0.3,0.6-0.9,0.6-1.6V320c0-2-0.5-3.6-1.5-4.7c-1-1.1-2.2-1.7-3.7-1.7c-1.2,0-2.3,0.3-3.3,1
		c-1,0.6-1.9,1.6-2.6,2.9c-0.7,1.3-1.1,2.7-1.1,4.1v9.7c0,0.9,0.2,1.5,0.5,1.8c0.4,0.4,1,0.5,1.8,0.5h2.1v1.9h-12.8v-1.9h1.5
		c1,0,1.7-0.2,2.1-0.6c0.4-0.4,0.6-1,0.6-1.8v-29c0-1-0.3-1.8-0.8-2.3c-0.5-0.5-1.3-0.8-2.4-0.8H331V297.2z"/>
	<path class="st1" d="M385.8,323.6h-17.4c0.1,3.7,0.8,6.3,2.1,7.8c1.5,1.7,3.4,2.6,5.7,2.6c3.4,0,6.1-1.9,8.2-5.8l1.7,0.7
		c-2.5,4.9-6.2,7.4-10.9,7.4c-3.3,0-6-1.2-8.2-3.5c-2.2-2.3-3.3-5.4-3.3-9c0-3.9,1.1-7.1,3.3-9.6c2.2-2.4,4.9-3.6,8.1-3.6
		c2.3,0,4.4,0.6,6.1,1.8c1.7,1.2,3,2.9,3.9,5.2C385.4,319.2,385.8,321.2,385.8,323.6 M368.4,321.8h10.5c0.6,0,1.1-0.2,1.5-0.6
		c0.3-0.4,0.5-1.1,0.5-2.2c0-1.9-0.6-3.5-1.8-4.9c-1.2-1.3-2.6-2-4.2-2c-1.8,0-3.3,0.8-4.6,2.4C369.1,316.1,368.4,318.5,368.4,321.8
		"/>
	<path class="st1" d="M389.2,311.3l8.7-0.4v9.8c0.9-3.2,2.1-5.7,3.4-7.3c1.3-1.7,2.9-2.5,4.9-2.5c1.3,0,2.4,0.4,3.2,1.2
		c0.8,0.8,1.2,1.9,1.2,3.2c0,1.1-0.3,1.9-0.8,2.5c-0.5,0.6-1.2,0.9-2,0.9c-0.8,0-1.4-0.3-1.9-0.8c-0.5-0.5-0.7-1.2-0.7-2.1
		c0-0.6,0.1-1.1,0.4-1.6c0.3-0.5,0.4-0.7,0.4-0.8c0-0.3-0.2-0.4-0.5-0.4c-0.7,0-1.5,0.4-2.4,1.2c-1.2,1.2-2.2,2.8-2.9,4.8
		c-1,3.1-1.6,5.7-1.6,7.5v5.2c0,0.6,0.2,1,0.6,1.3c0.4,0.3,1.1,0.5,2.1,0.5h3.1v1.9h-15.1v-1.9h2.4c0.8,0,1.4-0.2,1.8-0.5
		c0.4-0.3,0.6-0.7,0.6-1.2v-15.5c0-1.2-0.3-2-0.8-2.6c-0.5-0.5-1.2-0.8-2.2-0.8h-2.1V311.3z"/>
	<path class="st1" d="M426.9,297.2l9.5-0.4V330c0,1.3,0.2,2.2,0.7,2.8c0.5,0.6,1.2,0.8,2.2,0.8h1.7v1.9h-8.3l-0.6-5
		c-1,1.8-2.1,3.1-3.5,4c-1.3,0.9-2.8,1.3-4.4,1.3c-2.8,0-5.1-1.2-7.1-3.5c-1.9-2.3-2.9-5.4-2.9-9.2c0-4.1,1.2-7.4,3.7-9.9
		c2-1.9,4.2-2.9,6.7-2.9c1.6,0,3,0.4,4.2,1.2c1.2,0.8,2.3,2,3.2,3.5v-13.7c0-0.7-0.3-1.3-0.8-1.7c-0.6-0.4-1.4-0.6-2.6-0.6h-1.7
		V297.2z M425.4,312.7c-1.9,0-3.4,0.8-4.5,2.3c-1.1,1.5-1.6,4.1-1.6,7.8c0,4,0.6,6.8,1.7,8.4c1.1,1.6,2.6,2.4,4.3,2.4
		c1.9,0,3.5-0.9,4.8-2.7c1.3-1.8,2-4.4,2-7.9c0-3.3-0.7-5.9-2.2-7.8C428.8,313.5,427.2,312.7,425.4,312.7"/>
	<path class="st1" d="M487.4,300.2l1.8-3.7h1.6l0.7,15.4h-1.7c-1.1-4.3-2.6-7.5-4.3-9.6c-2.1-2.6-4.7-3.9-7.7-3.9
		c-3.2,0-5.8,1.4-7.9,4.3c-2,2.9-3,7.7-3,14.6c0,5.8,1.2,10.2,3.5,13.2c2,2.6,4.7,3.8,8.3,3.8c3.1,0,5.7-1,7.8-3c2.1-2,3.5-5,4.1-9
		h1.8c-0.5,4.6-2.1,8.1-4.7,10.5c-2.6,2.5-5.9,3.7-9.8,3.7c-3.2,0-6.1-0.8-8.8-2.4c-2.7-1.6-4.8-3.9-6.4-6.9c-1.6-3-2.4-6.3-2.4-9.9
		c0-3.8,0.8-7.4,2.5-10.8c1.7-3.3,3.8-5.9,6.3-7.6c2.6-1.7,5.4-2.5,8.3-2.5c1.7,0,3.3,0.3,4.8,0.9
		C483.9,297.8,485.6,298.8,487.4,300.2"/>
	<path class="st1" d="M519.6,323.6h-17.4c0.1,3.7,0.8,6.3,2.1,7.8c1.5,1.7,3.4,2.6,5.7,2.6c3.4,0,6.1-1.9,8.2-5.8l1.7,0.7
		c-2.5,4.9-6.2,7.4-10.9,7.4c-3.3,0-6-1.2-8.2-3.5c-2.2-2.3-3.3-5.4-3.3-9c0-3.9,1.1-7.1,3.3-9.6c2.2-2.4,4.9-3.6,8.1-3.6
		c2.3,0,4.4,0.6,6.1,1.8c1.7,1.2,3,2.9,3.9,5.2C519.2,319.2,519.5,321.2,519.6,323.6 M502.2,321.8h10.5c0.6,0,1.1-0.2,1.5-0.6
		c0.3-0.4,0.5-1.1,0.5-2.2c0-1.9-0.6-3.5-1.8-4.9c-1.2-1.3-2.6-2-4.2-2c-1.8,0-3.3,0.8-4.6,2.4C502.9,316.1,502.2,318.5,502.2,321.8
		"/>
	<path class="st1" d="M522.3,311.3l8.1-0.5c0.3,1.5,0.6,3.3,0.7,5.3c1.1-1.8,2.4-3.1,3.8-4c1.5-0.9,3.2-1.3,5-1.3c1.6,0,3,0.3,4,0.9
		c1.1,0.6,2,1.6,2.6,3c0.7,1.4,1,2.9,1,4.6v11.8c0,0.9,0.2,1.5,0.6,1.9c0.4,0.4,1.1,0.6,2,0.6h1.7v1.9h-12.8v-1.9h1.2
		c1.1,0,1.9-0.2,2.4-0.5c0.4-0.4,0.7-0.9,0.7-1.6v-10.4c0-2.3-0.3-3.9-1-5c-1-1.6-2.4-2.3-4.4-2.3c-2,0-3.6,0.8-4.9,2.4
		c-1.3,1.6-2,3.6-2,6.2v9c0,0.9,0.2,1.5,0.6,1.9c0.4,0.4,1.1,0.6,2,0.6h1.7v1.9h-12.9v-1.9h1.7c0.8,0,1.5-0.2,1.9-0.5
		c0.4-0.3,0.7-0.8,0.7-1.3v-15.7c0-1-0.3-1.8-0.8-2.4c-0.6-0.5-1.4-0.8-2.4-0.8h-1.2V311.3z"/>
	<path class="st1" d="M560.1,301.4h1.7v9.9h7.9v2.4h-7.9v15.6c0,1.3,0.3,2.4,1,3.1c0.6,0.7,1.5,1.1,2.4,1.1c1.2,0,2.2-0.5,3-1.6
		c0.8-1.1,1.3-2.9,1.5-5.4h1.7c-0.1,3.2-0.8,5.6-2.2,7.2c-1.4,1.6-3.1,2.3-5.3,2.3c-2,0-3.6-0.6-4.7-1.7c-1.1-1.1-1.7-2.5-1.7-4.3
		v-16.3h-4.2v-1.8c1.9-0.3,3.4-1.1,4.4-2.4C559.1,307.5,560,304.8,560.1,301.4"/>
	<path class="st1" d="M597.2,323.6h-17.4c0.1,3.7,0.8,6.3,2.1,7.8c1.5,1.7,3.4,2.6,5.7,2.6c3.4,0,6.1-1.9,8.2-5.8l1.7,0.7
		c-2.5,4.9-6.2,7.4-10.9,7.4c-3.3,0-6-1.2-8.2-3.5c-2.2-2.3-3.3-5.4-3.3-9c0-3.9,1.1-7.1,3.3-9.6c2.2-2.4,4.9-3.6,8.1-3.6
		c2.3,0,4.4,0.6,6.1,1.8c1.7,1.2,3,2.9,3.9,5.2C596.8,319.2,597.1,321.2,597.2,323.6 M579.7,321.8h10.5c0.6,0,1.1-0.2,1.5-0.6
		c0.3-0.4,0.5-1.1,0.5-2.2c0-1.9-0.6-3.5-1.8-4.9c-1.2-1.3-2.6-2-4.2-2c-1.8,0-3.3,0.8-4.6,2.4C580.5,316.1,579.8,318.5,579.7,321.8
		"/>
	<path class="st1" d="M599.5,311.3l8.7-0.4v9.8c0.9-3.2,2.1-5.7,3.4-7.3c1.3-1.7,2.9-2.5,4.9-2.5c1.3,0,2.4,0.4,3.2,1.2
		c0.8,0.8,1.2,1.9,1.2,3.2c0,1.1-0.3,1.9-0.8,2.5c-0.5,0.6-1.2,0.9-2,0.9c-0.8,0-1.4-0.3-1.9-0.8c-0.5-0.5-0.7-1.2-0.7-2.1
		c0-0.6,0.1-1.1,0.4-1.6c0.3-0.5,0.4-0.7,0.4-0.8c0-0.3-0.2-0.4-0.5-0.4c-0.7,0-1.5,0.4-2.4,1.2c-1.2,1.2-2.2,2.8-2.9,4.8
		c-1,3.1-1.6,5.7-1.6,7.5v5.2c0,0.6,0.2,1,0.6,1.3c0.4,0.3,1.1,0.5,2.1,0.5h3.1v1.9h-15.1v-1.9h2.4c0.8,0,1.4-0.2,1.8-0.5
		c0.4-0.3,0.6-0.7,0.6-1.2v-15.5c0-1.2-0.2-2-0.8-2.6c-0.5-0.5-1.2-0.8-2.2-0.8h-2.1V311.3z"/>
</g>
</svg>
